# xmcd
#
# Track frame offsets: 
#        150
#        13797
#        28387
#        46025
#        66475
#        87455
#        106490
#        121947
#        135537
#        159887
#        172722
#        183682
#        202242
#        218980
#        239880
#        254745
#        271400
#        289290
#
# Disc length: 4203 seconds
#
# Revision: 1
# Processed by: cddbd v1.5.1PL0 Copyright (c) Steve Scherf et al.
# Submitted via: ExactAudioCopy v0.90b4
#
DISCID=1c106912
DTITLE=Sture Elldin - Sture Elldin  AND HIS BLUESHARP
DYEAR=2002
DGENRE=Blues
TTITLE0=The Creeper Returns
TTITLE1=Crazy Legs
TTITLE2=Twoheaded Woman
TTITLE3=M and O Blues
TTITLE4=Summertime
TTITLE5=Things Ain't What They Used To Be
TTITLE6=Too Much
TTITLE7=West Coast Jump
TTITLE8=Quarter To Two
TTITLE9=Don't Say No More
TTITLE10=Hound Dog Baby
TTITLE11=Out On The Road
TTITLE12=C. C. Rider
TTITLE13=Tin Pan Alley
TTITLE14=You're So Fine
TTITLE15=Hard Hearted Woman
TTITLE16=Sugar Mama
TTITLE17=Everything's Gonna Be Alright
EXTD=YEAR: 2002
EXTT0=
EXTT1=
EXTT2=
EXTT3=
EXTT4=
EXTT5=
EXTT6=
EXTT7=
EXTT8=
EXTT9=
EXTT10=
EXTT11=
EXTT12=
EXTT13=
EXTT14=
EXTT15=
EXTT16=
EXTT17=
PLAYORDER=
